<mxfile host="app.diagrams.net" modified="2024-02-22T11:38:17.985Z" agent="Mozilla/5.0 (Windows NT 10.0; Win64; x64) AppleWebKit/537.36 (KHTML, like Gecko) Chrome/121.0.0.0 Safari/537.36" etag="VBW0PobeuY1GL1vgyWqf" version="22.0.0" type="github">
  <diagram name="Trang-1" id="klrKDH1kyjQ-8Mgod4-U">
    <mxGraphModel dx="1313" dy="705" grid="1" gridSize="10" guides="1" tooltips="1" connect="1" arrows="1" fold="1" page="1" pageScale="1" pageWidth="827" pageHeight="1169" math="0" shadow="0">
      <root>
        <mxCell id="0" />
        <mxCell id="1" parent="0" />
        <mxCell id="zcPDOfNT08QtMXOAa3Rn-2" value="" style="html=1;whiteSpace=wrap;strokeColor=default;align=center;verticalAlign=middle;fontFamily=Helvetica;fontSize=12;fontColor=default;fillColor=default;" vertex="1" parent="1">
          <mxGeometry x="220" y="30" width="360" height="690" as="geometry" />
        </mxCell>
        <mxCell id="zcPDOfNT08QtMXOAa3Rn-4" value="Use Case" style="ellipse;whiteSpace=wrap;html=1;strokeColor=default;align=center;verticalAlign=middle;fontFamily=Helvetica;fontSize=12;fontColor=default;fillColor=default;" vertex="1" parent="1">
          <mxGeometry x="290" y="310" width="140" height="70" as="geometry" />
        </mxCell>
        <mxCell id="zcPDOfNT08QtMXOAa3Rn-5" value="Use Case" style="ellipse;whiteSpace=wrap;html=1;strokeColor=default;align=center;verticalAlign=middle;fontFamily=Helvetica;fontSize=12;fontColor=default;fillColor=default;" vertex="1" parent="1">
          <mxGeometry x="290" y="430" width="140" height="70" as="geometry" />
        </mxCell>
        <mxCell id="zcPDOfNT08QtMXOAa3Rn-6" value="Use Case" style="ellipse;whiteSpace=wrap;html=1;strokeColor=default;align=center;verticalAlign=middle;fontFamily=Helvetica;fontSize=12;fontColor=default;fillColor=default;" vertex="1" parent="1">
          <mxGeometry x="290" y="530" width="140" height="70" as="geometry" />
        </mxCell>
        <mxCell id="zcPDOfNT08QtMXOAa3Rn-7" value="Use Case" style="ellipse;whiteSpace=wrap;html=1;strokeColor=default;align=center;verticalAlign=middle;fontFamily=Helvetica;fontSize=12;fontColor=default;fillColor=default;" vertex="1" parent="1">
          <mxGeometry x="290" y="640" width="140" height="70" as="geometry" />
        </mxCell>
        <mxCell id="zcPDOfNT08QtMXOAa3Rn-8" value="Use Case" style="ellipse;whiteSpace=wrap;html=1;strokeColor=default;align=center;verticalAlign=middle;fontFamily=Helvetica;fontSize=12;fontColor=default;fillColor=default;" vertex="1" parent="1">
          <mxGeometry x="290" y="200" width="140" height="70" as="geometry" />
        </mxCell>
        <mxCell id="zcPDOfNT08QtMXOAa3Rn-9" value="Use Case" style="ellipse;whiteSpace=wrap;html=1;strokeColor=default;align=center;verticalAlign=middle;fontFamily=Helvetica;fontSize=12;fontColor=default;fillColor=default;" vertex="1" parent="1">
          <mxGeometry x="290" y="90" width="140" height="70" as="geometry" />
        </mxCell>
        <mxCell id="zcPDOfNT08QtMXOAa3Rn-10" value="" style="shape=image;verticalLabelPosition=bottom;labelBackgroundColor=default;verticalAlign=top;aspect=fixed;imageAspect=0;image=data:image/png,iVBORw0KGgoAAAANSUhEUgAAAIAAAABmCAYAAAADI5lUAAAAAXNSR0IArs4c6QAAAARnQU1BAACxjwv8YQUAAAAJcEhZcwAAEnQAABJ0Ad5mH3gAACvMSURBVHhe7Z1pk1zXed+f3vfpWTCDwQ6QFClQokRREiXKVMm27HJSrnIlVUlV3sUv8kHyRfIyL1ypVNYqlyOX4zi2FG0UKa4gdmD2rfe9b3f+v3P6YhqzAANgBgsxz+Cgb9/lLM/zf7Zzz70dGYrsmF5aio4+j+klpWMAvOR0DICXnI4B8JLTMQBecjoGwEtOxwB4yekrOw/AsMaHFolE3Kfbp22+hfteZvrKAqDX61mn03HbCDoej1sQBDZguNpOUmIxd/xlpq8EABjCYDDYLtrnhN3vO+FTYhI2+9xgta2BW0z7o9HofeVlswovLADGu41W96XxaH1fQu9qX0zCzEjLEWh47rhwW62WOzeRSDjrkEwm3fb4OS8DGF5oADhhS6s7+oxK84lo0XQGBCiGOsY5aD6fqVTKCRqBYynY5yzGSPMT+ozreurYCYavKr1QAHBCH5l5/ecFS9ExvDkAQGgcD2OAbrerbQGl27dsNq2ScUBAyBB1BiNBswdmRAQEYgTOierT1csJX0F6rgGws2t8b0iwgTRXUnX78NtoK4RGI3iE3m63rdFoeAB0A+v1h5bJJCyXy1g+n9c1SQFht9lvUYdAldR2XEBJpNNuexwAXyXL8FwDwJvuQJ+S90Cf+sNMRyPSyQF6qT3DwLmBngTed9res2aza41m0yqNijVr8vWtmkX6W5bMzlh6YsYK09M2kclbLpOTRfAxQFhwHRRqd25En2xjDTjurIL68FWh5w4AziePCgAIAn0OIyoIQwCQECL6PpBG9wdd6/a61pTwO9L2tgI7NL/ZaAoEVYFg3WKdDUsGa5aOLNogfsoGmfOWmHrN0skpy6SLsgaAICXrkL7nGsKMgPaduxGh9ezj+Pg5L7o1eC4AMN6F0IyHAZojCT2KBmoTw9+Tpncl8Eanay0JvNuoO3Pf0GetVrFOsyKtXzPrLNjpzHWby96xqcyiVdonrWKXrZF739rBrEVi01YozFpxsmATEzm5h5wlCRTlFggWx4VLfwAEBABwHRRAENKLCIbnAgDe1Petg8apRNWlULvoXnDPGgRO4O1Wxzr6rNZbVq9J6BUJvFe3ZGTDCvFFy8YWLTlYNGsuWTFXkalvWCIlVzBIyZUUFTSetFYwZ83BKWsPzlkn+ppZ6oxAMGGZXF7WIGvZtI8PKFgGKGQVwGQ7tAgvsmt4ZgBwQh2VIZ/qBhG9uOuicS98NI+IXiZe2k6p16pWq0vbm9L8VtX6nbINOvLvw7tWSCzZbHbV8ul1S0U3LdovWzLTVzCniuIj4Qykpf2I4oaiNXszVsUqBK9bO3LJoskTFk2f0vkzcg/5e1kDlmHc7MOykG2R0f746FhYXhRr8FQAsFcTbWk8hSgdhuHbMfEuFdP5uIFWS8Fcgwmeurbl2xXcVcsbVq6Ubatataxt2GRqw+YK6zZtv7CJ2G3LJvsWUdgeVWKgQN9tWwzhkykgFMy4HIn+Bd2o3ElClmDWar2zttW6aOXg6w4MydScFYoTViyOXINcQjhZFM4lQKSggFeddJNPL5preCoACAM650e1DdNgCVrj/LwYBJOYusW/k78DgIaEXmm0rFOvWl1mvlytWSwoKahbsMzgSysml62YKimibypd25RgmpZKDJ1WksuTLFCo37dIYbjMI2hL1mCgEgzjcj9pa3WKVu+dsUb3nDX7560bu2DD5GlLZ2YsKxCQQmIVcAkIGRC4eQK158agmjVQ64qljC31AriGIwMA1TrBI3CVoYQb+k4AAIMSYk4Y7AGQTpcUrmUNmfh2uykzL//erFm3tmlBc8367VVp/ZZNxBdsOnXDivkNy0v46ZS0OqUoPcmcP7JAOx/A9F2H6IP+D2KySAVlFVNyDYoR+hetNbhoveg5i8giJLPTPkZI51SYUGIuQUFjShqP1lOVxtdWZXEBIqHi3AEAUHF/bp9r9LmgIwMAQnVmXIWpWgwwAg9NJ0TTRO9oPP692ZHWE9hV61atbiqdKymiL7lovhi9aafS1y3TW7FMom6ZYmDZ6Z6lcgNpPrWFDsQpI/+77V3E7tAb3COf7zvqCQw9aTE3FLrT6tNZW2hetlL/sjXlGiw9aYXslMBXlDXIyiqk9LkdMMZVtAEDbKixw4MhIJA/0hniAW7CN/U80KECAKGTh1NlWEjk0ABAT7DHPrSe4sy8ANBskrc3baukbZn7bpvAbtVywTWbsc9lVpuWl9BnC1VpeF0MlOAzQ4tlBwrapPVJhI9Ex1SLr+DBZ25+OxQ6p90HgDGijwOsl7Z7slA9uYZAQOhNyTXM22b7684iDJOnzBQ05rNFAUIWIZNwcwmZTMZikjCmn7uN3GfQoH2dwcD3MhZxs4ycs60Oz4aeCAAwyc+WDTQ4pWt9NAfVIUXy5+DbfUQ/tC7WQKUrkJDGIfRaTea+KaG3StauLdpA+XuktylN2bLp6G07Hbsqjg1k5gc2kVeDyUDaNFTQqMpdEUuxKjuFGtWXhEpfw2OIO4+zTXEIVRn19z7SeDwS4tqMW7tTsI3aa9bon7ZW5LR17IJF4qcFQLmHTE5gKFhOYEjJJeAaKBGBAbNPbOAms6hPn1GZLQeSkXJ417BXJ46WnggAkqX1hGoZOuu1exZ0AmknU6rbZi7UdOcOBI6mCpM4dUXxpVJZpWFBe8NSgwWbi//GJoKblg7WvIlPDOTz1b2UImwBwNXpovoxWYYbHPMewBPMdBcQ7ovpBB7jFBoNZpZCMO2kMc64TbDQiyhQTSteOWG1zhu22nnT1vuvW19AyCtYLOYm5Ba455B1LuJhroF9DAn3yHlPmx4ZAC6SB82uYObhi3ycWEQBxcMhwZ+f2OlyR06a3hZAavqsKqhrSfid2oos+13L2aIi+mVLDxTQTaeVwycsi4kUV5xtEdOTAkIiLs2PSFqDFbW2KVnXZN2zMrGzEt5FcZCIXBolzRr0tqRpq9KuRbmftEZ5QpXJf8dSXuiB6ukvaEOfsXO6NuNk2+921P+usghpY7yg9shSZLkEoHh/VRhpqq1zOjcv15CydougsWUtWYpab94aChhbdl4KMKnYZMKyhYLGk7as3MIu18C9jIiYpw/0PnSPzi3Ioo3HSkdJBwIAvj2M4Hv4bwnWScYRHEX1qMbPnXP7FW1viKHtunL4Wk3mvq2ovmSt5oaZzHysfdcSvVs2l1u2Qmzd0pGGRWfesFTxm5YrfEMMkcVorlutetdSqj6dmbJ04Yz1m1ct2vtUFuNjtZazQfzrNsj8iYSYt2gqJ1nKZjR+owDudxLYRwJAXpp2QUJ71yLZVxWtT6vvMgftz6SJqzaM5GyYOq/jCQvqV3V+yQVs0ezbAsG0c22Nyi1L9q8rretZZOJ9ly305bKsdVNXXRcL1qzembDNzjkrdS9KSc5aPzGvTs9ZLk2wmLdcXtmDwMlUc0IlHlEbCD/q2e/ueaiwLwQBrhOFOkrXEPv3otH2vhSacaJ1Jm/wZdwvp5MxRbUxaUy/z6QN8/ENqyqNqyiSL1crtrm+buurK7a1sWiNrRtm1c/sZPQDm4t8ZHPRKzKZm1Ys1K1Q6EmYYkrxXUuc/EvrSyi16pZt3vk/1qiVJOTXrXDx31p9cEog7Fgi+L16JmAmLllv4i9skH7LhhKaFVTaXyqOuCLNWhDCSfHS1huctkj+j1W/wFL4tpv61SgEqM8tSOlamXBr/VxVfmHDmPqS/alFcj+ShTlnzVUBaVCRAZm16OQ/s0YrZY3SgiVav5Rpv2Wx3IYAuiJtv2OTyduWGVYdvyqNqNXaEQWQftEK8xx9lEg9l21xYQrChiIR5guSAgEB8shF6FyEH55zFLQvABB6V3l5o9ER86T96i2mixUzLqhxmt6Tae8okGspbatbpVKxra0tW1/btI21NQn8tkXbN6xgX9pk++c2HXxkU0rnZqT1xWzJJnIty+f7Yp5MbAYmyB/m37Tk9I/VA5nJoK3/+5YqnFNM8IpycAm//pnq/NiSQ2le8k0L0u9aJ/G2BS1971cskZZJl9m2XscGaLTcRgRgxWesH7sot5SyXvOm9hUslhYoklMyzWck4LIN2z8Tw5flftIS9jsK1BTtRyfdWoJoYsoiAk0se1mCqcvm3ZBr+tCSabmjRFf7mP4dyO10LJWsSttXlbnclbO4pb7UlU5GldL2rd0VX8Vb5kWYI+lJyP2eXB2GQAFtRG4hPnJlbnIMNyprGhrqw7YG+wLAL6pQwKYOuzROmi5/4QpIdrddm8rZ600rbUnwpS0Jf90qWwvWLN+yfu2qxSWsgl21qeQ1KwYfWzG+aJPZsk0UmgqSujKNA6VzxEEauIDVHxRlNt+yaOF7ThMG/aoEU5XJzEuwM2KKTHJv2SL9ZQl7w4a5962X/IYCy7QNm7+3SFCR+RYAojLrEsigpXPlld3EUPSk0rdXFbSKkc1fazxZCXhOlkDpnMzxUDHBsPO3EqCEm5jR/u9L+GckmKyUoal6SgJ+W25GoJHZjsbksiJ3pJ01CaUtfYipHTE02rNEtCG3VVEss2HZYFU8a8httMTUig31OVAM0pdydXsDARJ+IlwpmQDk4yjVFVNMI14jeDfVDOljOPRZFeUwaF8AkKK12y0JR9EpiFSDrMTBDbCgsi7fXqk0rFyq2ubGiq2uLtnaym3rlK9Yvv87OxX7lc0MPrDpxJdWSC5JK9qWnRhaYWYof4hPl0WRc4+o7sgwJsEmrTp8Tdr8llzBq9Zqi2lNLMinDgRR+fhI9jVpYdH562ajblb8U+vajFU3PrJY/46LGzp9ISo9KQHqvOiEWUcBYYvY5JIFycsSdlem+38KRFXti8t1vCIhB4oH7sp1/KOEKt8bu2Dd1A+0f84CCSpQvBDt/C+LDX5jQwFsmDgvl3FBmY/iILmGiAJTLJYrGotMjcYkhVa9qYisnMY/mfzCcgJMQu5hoEy5WutavTFQSqyrImpfcUkgi4pyKYZWvVha4Vb8j5FOongCS1ttkmXheg+D9g0C8eVlRetbMuspRa9pFU5tNNoud6/XS1arVBXglSW8VQVli4rkFbD1l2wmrRw+W5PGKh3MKifOaQBCteu4lJG+jwM4UFDVUVRdaU+Ld2ctmlbQJoYMewrIemvunEiiKI2dd5o46JWVclb8eQJDt7Vpubii92hCublMuoQfjYqL/S0BY02WoS3lUaSfPCOOyor1rlo6nVWdJ6xtshiKE+LDVcslPlJLGVmieWsPX5VGCkiK1gPVkULb4y35bwWdUVkI0bCzIE2/Jt4sSCCqF5l4ZfafEBjRNoZn0E/KAuX9nch+wRrBGWsGlwSoUxL0hPilbCFXcNPMaQk9mYxbIqnMgVgLBVSQiFXO5dL33ZB6EtoXAGh6qVyxG3fvOn/FfAuBf7PZcStw+mJqv75hg+aKRLAkTV+0mfiypayqfDiqFEh+NDcpIeUlEJlbSZ60ai8KpIndICHLInMHp/YjdTVqMqP6fxiRdo9RJuHv2bfk+8cpKnegYarvshhjlEpKDdWddjvl6kskhjYhCzUICjLNWZfJjPckLgELw9bTZdxACrmWTLRUV0tCwiz7fdS7m3S9LBRWCnD3gqg1OrNW7py1VjBv3WFR4Mo6d5dMpS0twft7Df5+A24BUREgsqaRfYcxb7AvANhdVzR//fpNmfcVK5dLYpZOjfYtmYnb1Ik5CXzVJgY3tItcvmZZBVyJbEa++ZQi8tOW1WDkNC1w92QfRHg+BT/DHqId7duLOBYev5/LIe/3vpqj9x/pK4xj5QGzFxCxlZRKDAYsETFXV4WVinoK1OAUShcEaKPfT9DmKaGadAHXIJe9sS5SPS5IBQxqSyd2Fa9Um0krVZOmkErKRUCZHE0oMYcAIGlbipVNWrFYlAVL65yxDj4m7QsAiEBwa6tkS0srtrlZcn4nm8tavpC3QrHgcve4oufIoGExzKgGF03o/7iCMJV4VNxSeoOGHYQ8O/btzqGSb2mMgdoEBPhfesD2OHuxfuF+d8593eTM0RjHNh9IrkJgT18AXlSJS9Sl2c22SksZlgIEJtUUUQiQKVmogp04MX1vhvEw6IEAYFKHdHBjo6Q0ryazE5f5mVAHcupARBbBr7tHVcbRyNb2V/fNb46IY4cA3q8U4eMTivqGilHaLv1uW6lWcwH3QDxmUcrU1JTNzs66eYHDmht4IADCQ34mUPriBMf0aOA6trGxZeWKgj3ZRXfPe0RErwpeR8TG/cEKpvYYAPcTAsWvc0cxmfR3ClEu+EwBAJh9CnRYaeADAbAfYRVIE2/dumWLi8q1JXw3I0iUJKJr3PLETBG87LSJzrw+cv+pYyfqucMz3n0q3REZ727+wCQ906XbF2OwA/15w71N+H7OdTHAY1JUWkPUPzMzZYVCwYEhtMDcd/Gzroen+SE9NgDIEq5evWY3btyQK2h5JoylJcxYgWY67mYOH0J0gq70mAaVCdxNCMLXT3VRZswSfpp0mym0s8M3cughPIPRTDz1FOLjc+kMGhZX/MIfRN/oo+IztbvzZo3A7oLAvZFGf3eywNWnQjtRxUoEeLjYU6dOKsibuKfpR02PBYCw87dvLypLuGF37txwy7mEgNEZHtETrJ+TvWfB58OI+lgvwP2D9c310d6d5LkYl59MKy0rTs8rIJ3cwawdnN7xdS8CzI16xSpbK+7pInXGT1BJOKFWD/rcjYxZPFO0qZkZt4R8mzhr/9AffI6zgLGGc/241GyWuIpH1tJ25sxpl+Ydlol/GD0WADBJDID7+cQBGxur0lz/7D2TFTAQvrmXMEhb9opYGWCouV4DAweA9fVVu3NbluXKx26GsdVru3NCSiULdvbcefv2t75lp86+ZsXJEzu00VuovYZFe3vNpeNjy6UNW7p7w7W7vHDTWn3uQ/g8gYxvqjhnZ86+Ym+89Y6dnD8rAEy6a7eJevcWGrLc2Szj1bBVIvLvLC0DAFkHLMz/06JHBkDol4gB3N3BdlsZQnU0IC9IR4xaVcN0PyB9H6Ga//1dROXiCi65JvR1JQli8c51+/U//syufPGhLa7cdo95cxGrb8+d/4a9/d337I/+6E/sxPxFpaXSxNEQqB5gAU764jR41CYUk4XyoBu64yExjmq1bMuLt+13v/zf9smHv7Dbi7cUfbdddB5NZ+zym9+3d773Y3vnBz+y6Zl5S6eYYPImfLyN/YhzYDVdpbdcQRe4Z5HJxJ27ZM0A1uwwZvgOSo8MAJgLw0IAoD3r6+sOCAiQzrMMSpxmIsG5ACYyLKZ9o5nApA6RKdA0C0UAgWOmrmV/IK2/eeOa/eoXf2f/8Hf/1Xpqixsw6ULW/sW/+nf27nt/bBcvfM3qypVxPUPFDcgAP0r79BHC8twvHBjLd//oWQhWQMF53OtYuHNFAPh/9jd/89+surnsVurMn3/d/uzP/429/5M/c7N03FDq9SW9oKf2Hh6YcZxCv/oaK5cmxQqujcfpI9txpyhM8jxNC7DbHj6EQm1FeICA27+AAMYmk94XD7m7pQA9mQgfptDgFOEmEZBadCLokUr2XazgbjipMDWDxqWlcadOn7Pz5y/ZyZPzlkglLCO/eP6VN+zVr71pc3NnrN3zt6OFYJ2fcuvzwwknmA1DdxZm7QIJrdPx/jcUTHjPncUaJ06etzOX3rTZudMCLr65aJe//rZduPia4o2irh8Yq3cYB2MbdymAaK92IfrqgKl2U+TIYoK3pt5acQx+kvqFwHwa9MgAgHEUOo3guSvIuv+4hJ3O+Hl3bBwRNNrCfpqhIWWGHgD6ZM4fEMAg0h9cApE9QoKphcKEzcyedP6WFTSZfMHOSesRfjqds0az5TQ2JgBlMsqbSTdlYQiqxgUbFv+d/gdOe4m8QwGGVoLPbH7Spk+cttmTZyyXL1pOQn/9jW/Y7ImT7hzAz1Qgd0h5xwBuBeLa/dp11kVCdaBTf4mN4JN7FF28gzjuJ9ZYELLtno6aHhkA4SBBLJ1mDiAh3xVXIXLuK53SYWmOmCMGERPyiFelwoSGIuwRwXPOwzpA1BcyzBECyk7a5OwFyyjwyycnbG7y9MjKCGGDnixMVN/9+SycEDf13Zt9mE2daJQTWkgARIJPq78A4N44dA0uAyuVSSdtdv6M5acmLVvMywWcdxaI8zxgEXxC37lv4KtlP30fb5dPvkOMDR/PtRAyxmLxnbZDoqsM5WnRIwPAmy2/RIyx4+9ZzNFpyxpUyu4chOpuZUqr+8qtq9WSra6uuenkkPDXnIc5bgr5vJmDIA8hoFXcFxgoEu+2dA2LQeW3O92m2h8JSwyHqWgLK5IAGmDkGMLgkz42WLgiYSAGzneaK1PU6xK/ELewAscv4+aawTAiEMskdxR3DDoWG3at06qrXYDttTk03Z0OC0G4P+/7wrYXvncz3FFkIozjIUC8pjNvwnV+vFwbkk7R99GXp0CP3FRo/hmIuCFFZd27vLcYEvQ60kr/8KRjltgOAHhuv1IpyV3UPHB0PSYfv49AA4JAjRoAcB1xAde1WXOwtahzBIR+Q/HGkjUbZBz+7V5e44g1A4vBTGk/hJDoJ30ktaTQJox2TBcA/MRPT3V4jUZAXMO5zUZD7fIoWs0CAWF16bY1a1V3fSgs6tP/o3F4qxMCAFD6RZ4+S6CfIShpg4JyJNUX6gv3Me543JenRY8MgHAwEH4+I1NImSxO2vz8vM3MzDhT55gpTeAVLxq3mAzTcQUVZ0Eg9jMBMlUs2AlFv4DHCU0aS2rJPMD6yg0JpSUQle3OtY9sZemGgFR2TKfwdo/Jyazaz1lOqRRE/Q6gIh7QTIrJCIZ9MJzr6GOhkFd/JzUeP+/OOY1axbY2lm19+bq11A4rjz795ENbWrrrrmfsXE/gOTVVVB3cGPPA4zgFYKfTKAIvp9zuC0SaNzk56aZ7qYt2KVA4Jnj8tOhAq4L3Iu6PY+Ic4oV8xcZu1UuvO5C2sgpWmifT3peGi+tOUwRwBWB991QQZtbn5TLbVCjA8K6/hoLKzY11+/zT39qXn/3aVheuSLOUdVCn0s5IQrGG4oPCRFEACgM4Ncz1qptAin4JXhKAmKm2OcNbLW5qMT/gLVlYEBBpbEkZzdUvfm+ff/xLW7z5sfrfcOd39BlV7BFNcKMm6wRHvzkWaj1945P6wpdPodEEdUySYeUGCh7pL/3u84ob9RdXwj5cEKAAmKGCPQ16ZAB4E4gp8+a7z1o2CYCXOLkHPKtNa4kZXWn7QGacp2ZTSuviGjTn8x4fZhBhDEjHQsC4tvxpRTHE6sqi3b72hX34wf+1hVufKgYoOzPFc3VNWZRGQ6mS2kmRj+s6gj/m7xF6281P4Jfx6wKJNDw0ux4caBvxhI9j0DyfydTcbObta1/axx/+k1374gNr1dZ1XSChqc/NqjWpW9cnBIKBtHqAyxsJH9ABANphTKEQ+c4Kqrb6S+bhHpgZtcu7DuAHQEL43O0LrULoZp4GPdZUMJegTQyaQIg3cpXLMLFkKysLypICRdlpy2WzNjU9rcHlbWuzKu2uOvO9vLwhfx91L19g5Ys8iQ0V6K2vLNmdq5/Yzc9/a7XqpsBVl2+XNusfS7PbEmwsmrBcesKmJk/aqQuX7OKrbyhN+6alczOq00f1pJD+3vkJJ2Dya0qlwnp9hLjtatD81dVFu3vril37/S+tvLUsgFWNJWMK8t16PhbyBxGZfWUl82desVmlomfOvWLfeueHAndeYPI8YaEGU7mYeOqn7aoUgpXTTFjxhFC/17ZWs4bNshMnZuzM2bPuOlxDmBF4q/Z06LGgRgfxm/hBblxMi9nTSpkmlTKxlg3Ty6JGjhVUeBOXe4IXHyBC68Mp5KWlBbt184Zdv3bdbt++bnfv3rRF+dt2qyJ0kuf7WMH9pxIo/as1WKV03b789DdyEx/a6vKyzLRMqWIRspIMq5bUJpqFRoYMBeq4Y4TD/MXGxqYAuyFALtjS4k03FVyvbenErm/OGztHPDZWLW3YnZuf2xef/MqufPqBQKogUSiJCpTMCSBItHj3dC4uyrvLcqVuyyvrCmgrAoV/eynne5exPSfxtOiJbA3MBbWYr6ICucnihNMANBBGsB0uZIgy90lsowEyRjTGMaS8aWurK7aysGxb6+tWVbTdICiKECkr0OQS1xr48f5T3lRxRtPW1xYUod+xslwKQ0mlc5ZUe1gchDFuTr1mAQbXCWe9ajVlJ1VWOFcFOBWB0kf2rpuOwra51Yu/ByDrK3dtVWDhtjXCT6WyMvvc0Mk50MOTcTPOJnUSA+CiSuW61eUafAq6nSI+C3oiANxPSmliaTFgWoVbtP69OuMDI093A06QGo12jhOx23bAfB+RGaVV4uT7ZGCiaFyBpSwRE1CAjBc/5tVufDQ7FxLC9xE27Y92ili/kM1LcCzD5mnUHcSp4elDcWrodoAOBCZLk01qrGg+INg7emfXPSyMVRjlYVcG84zpEAHgtTMWhxF+JdBOk+a1EJPprcA28cUzT0omP4nP98X7V65VZzltVMK6Iq4u6vSziEwJ832cwuNhuwCGDSxKUmYmfNwtGieIo4yuGxVHbkPXD/xeP+W8XXaONSTXngoBYL+ngLAl7VccVKvWrdVQNqQBPkYYdmh0iAB4EoLjqAZmFh8t96Cgz6eaBJwqpFEUuYahyn60WwQ7CHWUNeATQDApxC78fUwaGU9glr3Q7hFC5AMgYoEOKC8fLAcaAxmKMg7FHfVqRW5vy6pyA80GbsDfI3hWdCQAgHl7WMMDEdfJiDhOM7/QkTXgzl+7p8CRfFrFh+a7CQtB3OAsxUMJwGH2/c2qfYm61B9A4W476HN4oPo9AMgENrdKtry6bmvKkkoKArkLCqifBzoyANynQSIZWf09nHNch0YiRZ5IJiSAV0TvPd7OwUsex4pzEUpJh4qyecYO4e9se5uoeIRM1wYb3pxHSDf2Qg67Rofc4bDsQ6HWhymmS0N5la20n3kSMiC//uH5IMeCoyaxWIqjwClk/kNJVyAQFZ61hOHuKZp+TACISfA8SxhVGhW1rlxEXya2zxO3FCECAYSzdDB728KqMqI57YtEBypM9PDpYwRuajlfME5cK7Ov00Z1qeiTuhEm7YUlbJdtP0HUdm9I4cZT0BstOH3O6KkA4KgIRruHKFSq0jQepCiVSm7SBw1ECD25D502IsyFUkyEwX13Aac3Ag2LPqOct1M5+S43RGBKPUxJu3bbHatWmmrPt0nhgVqO7fbpoBiX8wDT8Yzo+QaA+OhSvp38HBGMZlGFe8+wBN1te60LhUDxt239wpVSacs2NzesLGFtbapslK0k/1ypyUS3urIoQ8UaZk1hhNLqKP7oDGVtiEHkz3UMt+OWhMkKML3LlHa7jcZ7C7Bb+BqDfJLLFrA0o33PCx1qf8Ry/+eYP9r5JBQCwBEVhmUPUozAUrSdGjjgnQEdXkdXc8vXNjY2Rp9btr6+aZsqlUrN6m1F6boeITdHRUG6A0FXgu7oWMfFHTHry42E0xWy+C4+edB48SwkHgSoeLbniQ69OzKoYhC3RUc7RuRSrUe1gDp/gPVkE+YlVOlBc7C9iGVjPLDqCH/t1+kFyjDcJNROUp/dD5M8gELhPvLYnhM6dACEVmCcYI4vcGkk0YdRaPpH17nrDwgiTDFlF7kKGDKVULm3VqNNR+51bZTR/hBvXLEXs+jPY4H7OaG9xvTE5Hg3KvcTwj9YMORMvwoZBAkkfwclIvE9AXAQotPYdbet9kdjOHjPXyw6GgCohDw8CDkzmhRzx7jr0r8DGouDUrgq+R6x/aB5IO1/mAt40elIhqfsm0hAQNhpAkDFzlzLz6HvMqPa5js3gcZ30+HH7XQ4mRO2wydB2X3tjhP79zs2RhgNUsS9QO/c3lgDrs1DBvaT0OECALmqMLnSH+6VD+NbSZU80zx3Maw7OeJ9M+8WSY0EFNa019k7abv+BxODZ9Z5vL571x7g+pA4H4+zEwAO2JI2k0whscm08tiuZ0qH3w2lT9YVN7inv48UFHjvyhJ2USBujjjqbsU+Qk+59N5UO+lD9ABz/iMaBlE34/iy0OEDQIxnVo0Fnm6GbUwtiK7dGr7Bw9VrELA+P2I96sNQbFvRh5KzMoMRwlzkj0BjAoXqVHco+3VhoIY4b0iDOs/d/XtA4wyPGzu06S7Yh5yVeEC7z4oOEQCMzBe3WFTC3wUAcYFj/ryQvLmHQdsGgzX2UfcqtS77R3sfTJw1OpM59z3m3ZnL70tYlLA9X/Td/XkR3jNO2hEVGKICz845PN/n0a1qJCvT592b378XYZU8AML29j7vadIhAsAzQbZ/tP0wUtNuUiZcWu2FEdKD9WkvIrjcPZtDkHcv8gd8g+1zwCbt8i5kgtZdpOuYiHKTUXsYAVYH896/sF0/jtHjYFgefrps7EL64e4oigaOT3u0+ZQpZM0hkDRBzGi26tZqNx0j0DRWw3JLFO3gd347vY7xtm/m6CnctGGpNnPpBI46a1SbL/eRuMfRexoqcj8R3+ENH371LfWhabTNEnKEpJPkkvzLlngcjJU53a5/w5l/GFOay0WjBp0WS5hekOzw+8eJQLfT45dLm6qzKSvgJ5+ok/WGgcDGKiOelXSzjfrkaafAjVvnyg/h5g5VBI9BT9x6aPIoaEC9yY2VhnvEil8TabZ4+ULNMYy/Ds8LDHlUqyNlhDFcx0yf/G7kfrM4XrdLBRQ6B5KIk5U7TfukxbxGrV5jvp/l19QPAAZqt+KYz4Ml3Q6/LcySLAlBAEAQuCOq5beIWep1rz3V6dYYUJFKhM/wmGuYiyJuLHUBgLuP7Gf8gBmQ8c7fWFRK4e4e+tvEDpwCiZvZHDJ/jIWgPDsQPPaTQSExcHw9jO52hG5ZxEQ6Y6ks77v1q2OHoynYoQYeTyZtcqJoU5NTbtXw7OyMnT592uZPnrKg23A/DLm1uerqdi+CEhPvWVFJXrxU8QtBeFL4zLmL9u13vm9nz79qM7NzluK3/Vhjz903FQcs5KcEMpPlsSxWKxfcI2ynTp22M2fO6xhL1NdsdfmuExTrAwAlnp/JI4Dbw12obZ5syuUn1O4le+tb76rNectrLLnshCVT/ldBeACV5WZ+nSBvSEkbr4FhxTDPK8zPn7KzZy/YuQvn7eRp9TkRF1ieDQieGACh30MLMLkIhvcC89gXTwPBfKdITosEAO3Ppv0yal7YzBLyYpFn5Sacj6xXy7a0eEfXoYYUNaLr1Iy0R0WCcT9QpTInRn7t8lv29nfes6npk+43/ZwAWBiqP9r2D2nSU5aw80wf79rjfTy0O+VKLM5zjC1bvHPbgRmr4LIACnWo77TrLc/QvbPg1de/aZcvf0fXz1haY0nEALuCBc7hfLULbwASTx/z7j/azeUA4KSuK9rkNM8WZt3LuJ8VAB7ryaCQuBSTxkIIbrFubZUdAB6nRv94V9N+9Yu/t//xX/6jVcprTii0gZGkyjBk4jExmPvd935iP/jRT+299/756MjjUbfbtOtXP7X//Ff/wZaXblmrWXXt7iSsCUvJv/n2e/b9H/7U3nnnPQG5sOd4AREy9eDbTcwG8lIo3gsIGMKngp42PREAQtMf/lQMq2Qetza6gcleW1u2Lz77vf31f/8ru/rlJ+5x8JAtYdXprBg3e9L+5b/+S3vnu+/b3Nzp0ZHHIwRVU7xw7eoX9rO//k/221//g/tV8p2s4YHUN7/9XfuDH/+prM4feOux4xmEcXKWZB9+cAxrxPOLPCsBAPj+tOmRXYA3a/4pV56D54FLgjwWPPr9jPjRi9cY7y95F8/i3TsK2JrOn2I2w8L79E9I4K++9rp993s/kQ+/pOsIIveu9yAFP42JnihO24YAWNraULs8ep6/126Wdk+etu987327/OZ3FLecc+3uVd/BS+iieHcBriJ+j78U6KitwoEtQHiaj6oHxpM2nU4g4TdsZWVJYCCv9abtcWk0ZtXVsZ///d/andtX3ZO5IdEDWilOTtsrF16x115/x6ZPzLs20eLH5VXYLnV88Kt/ss8//p0sT1ljHh0Qke3nJ2fsh+/+oc2fOieQTjzRWCFYyk/A8I4BAlNcwTjBY0BxlHRgAODryW8J9gABJosrSXFYhxcy60kAG/aEurY21uSLG2o39PyeaAXG8MZyXuJEJhC2+bhth+1yfbm05QJRVhiPlNQRm7zzaHrqhH/cXYJ5krFCYbvU5X9w0wub7IEx4hL4PEo6MADw9wh/dXXVrYA94GXH9EhE6hh31oD0OHzQ9CjpQADglBAAV65csWvXrrlFlqGfOqbDIuKArF26dMHeeuvrziWEL686KjoQADD94SwWy6sRPmb/GACHTViAmAQ/4V4eEboCQHBUdCAAEOXzdo1mk9el+QgVMBzT0RBPOSN0JpB4z8LMzPToyOHTAwEQHlpb27KFhSX3Bo9e7/5f5TqmoyG0f27ulJ0/f84uXjzv9h2FK3ggANB0fH9DOT532qqlig2Cg97uPaYnJd50wv0SgkL37oMnzTv3oAcC4N4sn2IAJnyCLve/Ef5DvcYxPRHBX/8GUt49hDvAFfD6ucMGwQMBQKC3trbmCi908kSuerS56TEx98HUE3MevIImb+fOnbXJyYlDTwv3BQCmn+ifN3suKfff2CyZW4kxxA89mztXLw9tW1m0fmLCA4BPYgMsA5+HQbsA4I2P135KT2WjXLYKL3oGmPvai2M6CuJ1s9ls2v1eID8rA/kM4XCmiHcBAOET5lVk8tvNpjP2OolDx/QMafy+AK+jO6wp4n0twJ3FRVtcWrby5pZF3Po2d/iYnhGh9X4V06l7M4SHQfvGAAvLy3Z3acnWlleVDh4D4FkTAp+bm7NLFy44C3BYweC+AGBxJTEALzfq6pT778kd09MmXqWfz2RsKp933w9rUmhfAITTvWQDuATKMT07Yok5v2AGEA6T9gXAMb0cdJzQv+R0DICXmsz+P4toPBqniB7EAAAAAElFTkSuQmCC;" vertex="1" parent="1">
          <mxGeometry x="720" y="184" width="128" height="102" as="geometry" />
        </mxCell>
        <mxCell id="zcPDOfNT08QtMXOAa3Rn-11" value="" style="shape=image;verticalLabelPosition=bottom;labelBackgroundColor=default;verticalAlign=top;aspect=fixed;imageAspect=0;image=data:image/png,iVBORw0KGgoAAAANSUhEUgAAAIAAAABmCAYAAAADI5lUAAAAAXNSR0IArs4c6QAAAARnQU1BAACxjwv8YQUAAAAJcEhZcwAAEnQAABJ0Ad5mH3gAACvMSURBVHhe7Z1pk1zXed+f3vfpWTCDwQ6QFClQokRREiXKVMm27HJSrnIlVUlV3sUv8kHyRfIyL1ypVNYqlyOX4zi2FG0UKa4gdmD2rfe9b3f+v3P6YhqzAANgBgsxz+Cgb9/lLM/zf7Zzz70dGYrsmF5aio4+j+klpWMAvOR0DICXnI4B8JLTMQBecjoGwEtOxwB4yekrOw/AsMaHFolE3Kfbp22+hfteZvrKAqDX61mn03HbCDoej1sQBDZguNpOUmIxd/xlpq8EABjCYDDYLtrnhN3vO+FTYhI2+9xgta2BW0z7o9HofeVlswovLADGu41W96XxaH1fQu9qX0zCzEjLEWh47rhwW62WOzeRSDjrkEwm3fb4OS8DGF5oADhhS6s7+oxK84lo0XQGBCiGOsY5aD6fqVTKCRqBYynY5yzGSPMT+ozreurYCYavKr1QAHBCH5l5/ecFS9ExvDkAQGgcD2OAbrerbQGl27dsNq2ScUBAyBB1BiNBswdmRAQEYgTOierT1csJX0F6rgGws2t8b0iwgTRXUnX78NtoK4RGI3iE3m63rdFoeAB0A+v1h5bJJCyXy1g+n9c1SQFht9lvUYdAldR2XEBJpNNuexwAXyXL8FwDwJvuQJ+S90Cf+sNMRyPSyQF6qT3DwLmBngTed9res2aza41m0yqNijVr8vWtmkX6W5bMzlh6YsYK09M2kclbLpOTRfAxQFhwHRRqd25En2xjDTjurIL68FWh5w4AziePCgAIAn0OIyoIQwCQECL6PpBG9wdd6/a61pTwO9L2tgI7NL/ZaAoEVYFg3WKdDUsGa5aOLNogfsoGmfOWmHrN0skpy6SLsgaAICXrkL7nGsKMgPaduxGh9ezj+Pg5L7o1eC4AMN6F0IyHAZojCT2KBmoTw9+Tpncl8Eanay0JvNuoO3Pf0GetVrFOsyKtXzPrLNjpzHWby96xqcyiVdonrWKXrZF739rBrEVi01YozFpxsmATEzm5h5wlCRTlFggWx4VLfwAEBABwHRRAENKLCIbnAgDe1Petg8apRNWlULvoXnDPGgRO4O1Wxzr6rNZbVq9J6BUJvFe3ZGTDCvFFy8YWLTlYNGsuWTFXkalvWCIlVzBIyZUUFTSetFYwZ83BKWsPzlkn+ppZ6oxAMGGZXF7WIGvZtI8PKFgGKGQVwGQ7tAgvsmt4ZgBwQh2VIZ/qBhG9uOuicS98NI+IXiZe2k6p16pWq0vbm9L8VtX6nbINOvLvw7tWSCzZbHbV8ul1S0U3LdovWzLTVzCniuIj4Qykpf2I4oaiNXszVsUqBK9bO3LJoskTFk2f0vkzcg/5e1kDlmHc7MOykG2R0f746FhYXhRr8FQAsFcTbWk8hSgdhuHbMfEuFdP5uIFWS8Fcgwmeurbl2xXcVcsbVq6Ubatataxt2GRqw+YK6zZtv7CJ2G3LJvsWUdgeVWKgQN9tWwzhkykgFMy4HIn+Bd2o3ElClmDWar2zttW6aOXg6w4MydScFYoTViyOXINcQjhZFM4lQKSggFeddJNPL5preCoACAM650e1DdNgCVrj/LwYBJOYusW/k78DgIaEXmm0rFOvWl1mvlytWSwoKahbsMzgSysml62YKimibypd25RgmpZKDJ1WksuTLFCo37dIYbjMI2hL1mCgEgzjcj9pa3WKVu+dsUb3nDX7560bu2DD5GlLZ2YsKxCQQmIVcAkIGRC4eQK158agmjVQ64qljC31AriGIwMA1TrBI3CVoYQb+k4AAIMSYk4Y7AGQTpcUrmUNmfh2uykzL//erFm3tmlBc8367VVp/ZZNxBdsOnXDivkNy0v46ZS0OqUoPcmcP7JAOx/A9F2H6IP+D2KySAVlFVNyDYoR+hetNbhoveg5i8giJLPTPkZI51SYUGIuQUFjShqP1lOVxtdWZXEBIqHi3AEAUHF/bp9r9LmgIwMAQnVmXIWpWgwwAg9NJ0TTRO9oPP692ZHWE9hV61atbiqdKymiL7lovhi9aafS1y3TW7FMom6ZYmDZ6Z6lcgNpPrWFDsQpI/+77V3E7tAb3COf7zvqCQw9aTE3FLrT6tNZW2hetlL/sjXlGiw9aYXslMBXlDXIyiqk9LkdMMZVtAEDbKixw4MhIJA/0hniAW7CN/U80KECAKGTh1NlWEjk0ABAT7DHPrSe4sy8ANBskrc3baukbZn7bpvAbtVywTWbsc9lVpuWl9BnC1VpeF0MlOAzQ4tlBwrapPVJhI9Ex1SLr+DBZ25+OxQ6p90HgDGijwOsl7Z7slA9uYZAQOhNyTXM22b7684iDJOnzBQ05rNFAUIWIZNwcwmZTMZikjCmn7uN3GfQoH2dwcD3MhZxs4ycs60Oz4aeCAAwyc+WDTQ4pWt9NAfVIUXy5+DbfUQ/tC7WQKUrkJDGIfRaTea+KaG3StauLdpA+XuktylN2bLp6G07Hbsqjg1k5gc2kVeDyUDaNFTQqMpdEUuxKjuFGtWXhEpfw2OIO4+zTXEIVRn19z7SeDwS4tqMW7tTsI3aa9bon7ZW5LR17IJF4qcFQLmHTE5gKFhOYEjJJeAaKBGBAbNPbOAms6hPn1GZLQeSkXJ417BXJ46WnggAkqX1hGoZOuu1exZ0AmknU6rbZi7UdOcOBI6mCpM4dUXxpVJZpWFBe8NSgwWbi//GJoKblg7WvIlPDOTz1b2UImwBwNXpovoxWYYbHPMewBPMdBcQ7ovpBB7jFBoNZpZCMO2kMc64TbDQiyhQTSteOWG1zhu22nnT1vuvW19AyCtYLOYm5Ba455B1LuJhroF9DAn3yHlPmx4ZAC6SB82uYObhi3ycWEQBxcMhwZ+f2OlyR06a3hZAavqsKqhrSfid2oos+13L2aIi+mVLDxTQTaeVwycsi4kUV5xtEdOTAkIiLs2PSFqDFbW2KVnXZN2zMrGzEt5FcZCIXBolzRr0tqRpq9KuRbmftEZ5QpXJf8dSXuiB6ukvaEOfsXO6NuNk2+921P+usghpY7yg9shSZLkEoHh/VRhpqq1zOjcv15CydougsWUtWYpab94aChhbdl4KMKnYZMKyhYLGk7as3MIu18C9jIiYpw/0PnSPzi3Ioo3HSkdJBwIAvj2M4Hv4bwnWScYRHEX1qMbPnXP7FW1viKHtunL4Wk3mvq2ovmSt5oaZzHysfdcSvVs2l1u2Qmzd0pGGRWfesFTxm5YrfEMMkcVorlutetdSqj6dmbJ04Yz1m1ct2vtUFuNjtZazQfzrNsj8iYSYt2gqJ1nKZjR+owDudxLYRwJAXpp2QUJ71yLZVxWtT6vvMgftz6SJqzaM5GyYOq/jCQvqV3V+yQVs0ezbAsG0c22Nyi1L9q8rretZZOJ9ly305bKsdVNXXRcL1qzembDNzjkrdS9KSc5aPzGvTs9ZLk2wmLdcXtmDwMlUc0IlHlEbCD/q2e/ueaiwLwQBrhOFOkrXEPv3otH2vhSacaJ1Jm/wZdwvp5MxRbUxaUy/z6QN8/ENqyqNqyiSL1crtrm+buurK7a1sWiNrRtm1c/sZPQDm4t8ZHPRKzKZm1Ys1K1Q6EmYYkrxXUuc/EvrSyi16pZt3vk/1qiVJOTXrXDx31p9cEog7Fgi+L16JmAmLllv4i9skH7LhhKaFVTaXyqOuCLNWhDCSfHS1huctkj+j1W/wFL4tpv61SgEqM8tSOlamXBr/VxVfmHDmPqS/alFcj+ShTlnzVUBaVCRAZm16OQ/s0YrZY3SgiVav5Rpv2Wx3IYAuiJtv2OTyduWGVYdvyqNqNXaEQWQftEK8xx9lEg9l21xYQrChiIR5guSAgEB8shF6FyEH55zFLQvABB6V3l5o9ER86T96i2mixUzLqhxmt6Tae8okGspbatbpVKxra0tW1/btI21NQn8tkXbN6xgX9pk++c2HXxkU0rnZqT1xWzJJnIty+f7Yp5MbAYmyB/m37Tk9I/VA5nJoK3/+5YqnFNM8IpycAm//pnq/NiSQ2le8k0L0u9aJ/G2BS1971cskZZJl9m2XscGaLTcRgRgxWesH7sot5SyXvOm9hUslhYoklMyzWck4LIN2z8Tw5flftIS9jsK1BTtRyfdWoJoYsoiAk0se1mCqcvm3ZBr+tCSabmjRFf7mP4dyO10LJWsSttXlbnclbO4pb7UlU5GldL2rd0VX8Vb5kWYI+lJyP2eXB2GQAFtRG4hPnJlbnIMNyprGhrqw7YG+wLAL6pQwKYOuzROmi5/4QpIdrddm8rZ600rbUnwpS0Jf90qWwvWLN+yfu2qxSWsgl21qeQ1KwYfWzG+aJPZsk0UmgqSujKNA6VzxEEauIDVHxRlNt+yaOF7ThMG/aoEU5XJzEuwM2KKTHJv2SL9ZQl7w4a5962X/IYCy7QNm7+3SFCR+RYAojLrEsigpXPlld3EUPSk0rdXFbSKkc1fazxZCXhOlkDpnMzxUDHBsPO3EqCEm5jR/u9L+GckmKyUoal6SgJ+W25GoJHZjsbksiJ3pJ01CaUtfYipHTE02rNEtCG3VVEss2HZYFU8a8httMTUig31OVAM0pdydXsDARJ+IlwpmQDk4yjVFVNMI14jeDfVDOljOPRZFeUwaF8AkKK12y0JR9EpiFSDrMTBDbCgsi7fXqk0rFyq2ubGiq2uLtnaym3rlK9Yvv87OxX7lc0MPrDpxJdWSC5JK9qWnRhaYWYof4hPl0WRc4+o7sgwJsEmrTp8Tdr8llzBq9Zqi2lNLMinDgRR+fhI9jVpYdH562ajblb8U+vajFU3PrJY/46LGzp9ISo9KQHqvOiEWUcBYYvY5JIFycsSdlem+38KRFXti8t1vCIhB4oH7sp1/KOEKt8bu2Dd1A+0f84CCSpQvBDt/C+LDX5jQwFsmDgvl3FBmY/iILmGiAJTLJYrGotMjcYkhVa9qYisnMY/mfzCcgJMQu5hoEy5WutavTFQSqyrImpfcUkgi4pyKYZWvVha4Vb8j5FOongCS1ttkmXheg+D9g0C8eVlRetbMuspRa9pFU5tNNoud6/XS1arVBXglSW8VQVli4rkFbD1l2wmrRw+W5PGKh3MKifOaQBCteu4lJG+jwM4UFDVUVRdaU+Ld2ctmlbQJoYMewrIemvunEiiKI2dd5o46JWVclb8eQJDt7Vpubii92hCublMuoQfjYqL/S0BY02WoS3lUaSfPCOOyor1rlo6nVWdJ6xtshiKE+LDVcslPlJLGVmieWsPX5VGCkiK1gPVkULb4y35bwWdUVkI0bCzIE2/Jt4sSCCqF5l4ZfafEBjRNoZn0E/KAuX9nch+wRrBGWsGlwSoUxL0hPilbCFXcNPMaQk9mYxbIqnMgVgLBVSQiFXO5dL33ZB6EtoXAGh6qVyxG3fvOn/FfAuBf7PZcStw+mJqv75hg+aKRLAkTV+0mfiypayqfDiqFEh+NDcpIeUlEJlbSZ60ai8KpIndICHLInMHp/YjdTVqMqP6fxiRdo9RJuHv2bfk+8cpKnegYarvshhjlEpKDdWddjvl6kskhjYhCzUICjLNWZfJjPckLgELw9bTZdxACrmWTLRUV0tCwiz7fdS7m3S9LBRWCnD3gqg1OrNW7py1VjBv3WFR4Mo6d5dMpS0twft7Df5+A24BUREgsqaRfYcxb7AvANhdVzR//fpNmfcVK5dLYpZOjfYtmYnb1Ik5CXzVJgY3tItcvmZZBVyJbEa++ZQi8tOW1WDkNC1w92QfRHg+BT/DHqId7duLOBYev5/LIe/3vpqj9x/pK4xj5QGzFxCxlZRKDAYsETFXV4WVinoK1OAUShcEaKPfT9DmKaGadAHXIJe9sS5SPS5IBQxqSyd2Fa9Um0krVZOmkErKRUCZHE0oMYcAIGlbipVNWrFYlAVL65yxDj4m7QsAiEBwa6tkS0srtrlZcn4nm8tavpC3QrHgcve4oufIoGExzKgGF03o/7iCMJV4VNxSeoOGHYQ8O/btzqGSb2mMgdoEBPhfesD2OHuxfuF+d8593eTM0RjHNh9IrkJgT18AXlSJS9Sl2c22SksZlgIEJtUUUQiQKVmogp04MX1vhvEw6IEAYFKHdHBjo6Q0ryazE5f5mVAHcupARBbBr7tHVcbRyNb2V/fNb46IY4cA3q8U4eMTivqGilHaLv1uW6lWcwH3QDxmUcrU1JTNzs66eYHDmht4IADCQ34mUPriBMf0aOA6trGxZeWKgj3ZRXfPe0RErwpeR8TG/cEKpvYYAPcTAsWvc0cxmfR3ClEu+EwBAJh9CnRYaeADAbAfYRVIE2/dumWLi8q1JXw3I0iUJKJr3PLETBG87LSJzrw+cv+pYyfqucMz3n0q3REZ727+wCQ906XbF2OwA/15w71N+H7OdTHAY1JUWkPUPzMzZYVCwYEhtMDcd/Gzroen+SE9NgDIEq5evWY3btyQK2h5JoylJcxYgWY67mYOH0J0gq70mAaVCdxNCMLXT3VRZswSfpp0mym0s8M3cughPIPRTDz1FOLjc+kMGhZX/MIfRN/oo+IztbvzZo3A7oLAvZFGf3eywNWnQjtRxUoEeLjYU6dOKsibuKfpR02PBYCw87dvLypLuGF37txwy7mEgNEZHtETrJ+TvWfB58OI+lgvwP2D9c310d6d5LkYl59MKy0rTs8rIJ3cwawdnN7xdS8CzI16xSpbK+7pInXGT1BJOKFWD/rcjYxZPFO0qZkZt4R8mzhr/9AffI6zgLGGc/241GyWuIpH1tJ25sxpl+Ydlol/GD0WADBJDID7+cQBGxur0lz/7D2TFTAQvrmXMEhb9opYGWCouV4DAweA9fVVu3NbluXKx26GsdVru3NCSiULdvbcefv2t75lp86+ZsXJEzu00VuovYZFe3vNpeNjy6UNW7p7w7W7vHDTWn3uQ/g8gYxvqjhnZ86+Ym+89Y6dnD8rAEy6a7eJevcWGrLc2Szj1bBVIvLvLC0DAFkHLMz/06JHBkDol4gB3N3BdlsZQnU0IC9IR4xaVcN0PyB9H6Ga//1dROXiCi65JvR1JQli8c51+/U//syufPGhLa7cdo95cxGrb8+d/4a9/d337I/+6E/sxPxFpaXSxNEQqB5gAU764jR41CYUk4XyoBu64yExjmq1bMuLt+13v/zf9smHv7Dbi7cUfbdddB5NZ+zym9+3d773Y3vnBz+y6Zl5S6eYYPImfLyN/YhzYDVdpbdcQRe4Z5HJxJ27ZM0A1uwwZvgOSo8MAJgLw0IAoD3r6+sOCAiQzrMMSpxmIsG5ACYyLKZ9o5nApA6RKdA0C0UAgWOmrmV/IK2/eeOa/eoXf2f/8Hf/1Xpqixsw6ULW/sW/+nf27nt/bBcvfM3qypVxPUPFDcgAP0r79BHC8twvHBjLd//oWQhWQMF53OtYuHNFAPh/9jd/89+surnsVurMn3/d/uzP/429/5M/c7N03FDq9SW9oKf2Hh6YcZxCv/oaK5cmxQqujcfpI9txpyhM8jxNC7DbHj6EQm1FeICA27+AAMYmk94XD7m7pQA9mQgfptDgFOEmEZBadCLokUr2XazgbjipMDWDxqWlcadOn7Pz5y/ZyZPzlkglLCO/eP6VN+zVr71pc3NnrN3zt6OFYJ2fcuvzwwknmA1DdxZm7QIJrdPx/jcUTHjPncUaJ06etzOX3rTZudMCLr65aJe//rZduPia4o2irh8Yq3cYB2MbdymAaK92IfrqgKl2U+TIYoK3pt5acQx+kvqFwHwa9MgAgHEUOo3guSvIuv+4hJ3O+Hl3bBwRNNrCfpqhIWWGHgD6ZM4fEMAg0h9cApE9QoKphcKEzcyedP6WFTSZfMHOSesRfjqds0az5TQ2JgBlMsqbSTdlYQiqxgUbFv+d/gdOe4m8QwGGVoLPbH7Spk+cttmTZyyXL1pOQn/9jW/Y7ImT7hzAz1Qgd0h5xwBuBeLa/dp11kVCdaBTf4mN4JN7FF28gzjuJ9ZYELLtno6aHhkA4SBBLJ1mDiAh3xVXIXLuK53SYWmOmCMGERPyiFelwoSGIuwRwXPOwzpA1BcyzBECyk7a5OwFyyjwyycnbG7y9MjKCGGDnixMVN/9+SycEDf13Zt9mE2daJQTWkgARIJPq78A4N44dA0uAyuVSSdtdv6M5acmLVvMywWcdxaI8zxgEXxC37lv4KtlP30fb5dPvkOMDR/PtRAyxmLxnbZDoqsM5WnRIwPAmy2/RIyx4+9ZzNFpyxpUyu4chOpuZUqr+8qtq9WSra6uuenkkPDXnIc5bgr5vJmDIA8hoFXcFxgoEu+2dA2LQeW3O92m2h8JSwyHqWgLK5IAGmDkGMLgkz42WLgiYSAGzneaK1PU6xK/ELewAscv4+aawTAiEMskdxR3DDoWG3at06qrXYDttTk03Z0OC0G4P+/7wrYXvncz3FFkIozjIUC8pjNvwnV+vFwbkk7R99GXp0CP3FRo/hmIuCFFZd27vLcYEvQ60kr/8KRjltgOAHhuv1IpyV3UPHB0PSYfv49AA4JAjRoAcB1xAde1WXOwtahzBIR+Q/HGkjUbZBz+7V5e44g1A4vBTGk/hJDoJ30ktaTQJox2TBcA/MRPT3V4jUZAXMO5zUZD7fIoWs0CAWF16bY1a1V3fSgs6tP/o3F4qxMCAFD6RZ4+S6CfIShpg4JyJNUX6gv3Me543JenRY8MgHAwEH4+I1NImSxO2vz8vM3MzDhT55gpTeAVLxq3mAzTcQUVZ0Eg9jMBMlUs2AlFv4DHCU0aS2rJPMD6yg0JpSUQle3OtY9sZemGgFR2TKfwdo/Jyazaz1lOqRRE/Q6gIh7QTIrJCIZ9MJzr6GOhkFd/JzUeP+/OOY1axbY2lm19+bq11A4rjz795ENbWrrrrmfsXE/gOTVVVB3cGPPA4zgFYKfTKAIvp9zuC0SaNzk56aZ7qYt2KVA4Jnj8tOhAq4L3Iu6PY+Ic4oV8xcZu1UuvO5C2sgpWmifT3peGi+tOUwRwBWB991QQZtbn5TLbVCjA8K6/hoLKzY11+/zT39qXn/3aVheuSLOUdVCn0s5IQrGG4oPCRFEACgM4Ncz1qptAin4JXhKAmKm2OcNbLW5qMT/gLVlYEBBpbEkZzdUvfm+ff/xLW7z5sfrfcOd39BlV7BFNcKMm6wRHvzkWaj1945P6wpdPodEEdUySYeUGCh7pL/3u84ob9RdXwj5cEKAAmKGCPQ16ZAB4E4gp8+a7z1o2CYCXOLkHPKtNa4kZXWn7QGacp2ZTSuviGjTn8x4fZhBhDEjHQsC4tvxpRTHE6sqi3b72hX34wf+1hVufKgYoOzPFc3VNWZRGQ6mS2kmRj+s6gj/m7xF6281P4Jfx6wKJNDw0ux4caBvxhI9j0DyfydTcbObta1/axx/+k1374gNr1dZ1XSChqc/NqjWpW9cnBIKBtHqAyxsJH9ABANphTKEQ+c4Kqrb6S+bhHpgZtcu7DuAHQEL43O0LrULoZp4GPdZUMJegTQyaQIg3cpXLMLFkKysLypICRdlpy2WzNjU9rcHlbWuzKu2uOvO9vLwhfx91L19g5Ys8iQ0V6K2vLNmdq5/Yzc9/a7XqpsBVl2+XNusfS7PbEmwsmrBcesKmJk/aqQuX7OKrbyhN+6alczOq00f1pJD+3vkJJ2Dya0qlwnp9hLjtatD81dVFu3vril37/S+tvLUsgFWNJWMK8t16PhbyBxGZfWUl82desVmlomfOvWLfeueHAndeYPI8YaEGU7mYeOqn7aoUgpXTTFjxhFC/17ZWs4bNshMnZuzM2bPuOlxDmBF4q/Z06LGgRgfxm/hBblxMi9nTSpkmlTKxlg3Ty6JGjhVUeBOXe4IXHyBC68Mp5KWlBbt184Zdv3bdbt++bnfv3rRF+dt2qyJ0kuf7WMH9pxIo/as1WKV03b789DdyEx/a6vKyzLRMqWIRspIMq5bUJpqFRoYMBeq4Y4TD/MXGxqYAuyFALtjS4k03FVyvbenErm/OGztHPDZWLW3YnZuf2xef/MqufPqBQKogUSiJCpTMCSBItHj3dC4uyrvLcqVuyyvrCmgrAoV/eynne5exPSfxtOiJbA3MBbWYr6ICucnihNMANBBGsB0uZIgy90lsowEyRjTGMaS8aWurK7aysGxb6+tWVbTdICiKECkr0OQS1xr48f5T3lRxRtPW1xYUod+xslwKQ0mlc5ZUe1gchDFuTr1mAQbXCWe9ajVlJ1VWOFcFOBWB0kf2rpuOwra51Yu/ByDrK3dtVWDhtjXCT6WyMvvc0Mk50MOTcTPOJnUSA+CiSuW61eUafAq6nSI+C3oiANxPSmliaTFgWoVbtP69OuMDI093A06QGo12jhOx23bAfB+RGaVV4uT7ZGCiaFyBpSwRE1CAjBc/5tVufDQ7FxLC9xE27Y92ili/kM1LcCzD5mnUHcSp4elDcWrodoAOBCZLk01qrGg+INg7emfXPSyMVRjlYVcG84zpEAHgtTMWhxF+JdBOk+a1EJPprcA28cUzT0omP4nP98X7V65VZzltVMK6Iq4u6vSziEwJ832cwuNhuwCGDSxKUmYmfNwtGieIo4yuGxVHbkPXD/xeP+W8XXaONSTXngoBYL+ngLAl7VccVKvWrdVQNqQBPkYYdmh0iAB4EoLjqAZmFh8t96Cgz6eaBJwqpFEUuYahyn60WwQ7CHWUNeATQDApxC78fUwaGU9glr3Q7hFC5AMgYoEOKC8fLAcaAxmKMg7FHfVqRW5vy6pyA80GbsDfI3hWdCQAgHl7WMMDEdfJiDhOM7/QkTXgzl+7p8CRfFrFh+a7CQtB3OAsxUMJwGH2/c2qfYm61B9A4W476HN4oPo9AMgENrdKtry6bmvKkkoKArkLCqifBzoyANynQSIZWf09nHNch0YiRZ5IJiSAV0TvPd7OwUsex4pzEUpJh4qyecYO4e9se5uoeIRM1wYb3pxHSDf2Qg67Rofc4bDsQ6HWhymmS0N5la20n3kSMiC//uH5IMeCoyaxWIqjwClk/kNJVyAQFZ61hOHuKZp+TACISfA8SxhVGhW1rlxEXya2zxO3FCECAYSzdDB728KqMqI57YtEBypM9PDpYwRuajlfME5cK7Ov00Z1qeiTuhEm7YUlbJdtP0HUdm9I4cZT0BstOH3O6KkA4KgIRruHKFSq0jQepCiVSm7SBw1ECD25D502IsyFUkyEwX13Aac3Ag2LPqOct1M5+S43RGBKPUxJu3bbHatWmmrPt0nhgVqO7fbpoBiX8wDT8Yzo+QaA+OhSvp38HBGMZlGFe8+wBN1te60LhUDxt239wpVSacs2NzesLGFtbapslK0k/1ypyUS3urIoQ8UaZk1hhNLqKP7oDGVtiEHkz3UMt+OWhMkKML3LlHa7jcZ7C7Bb+BqDfJLLFrA0o33PCx1qf8Ry/+eYP9r5JBQCwBEVhmUPUozAUrSdGjjgnQEdXkdXc8vXNjY2Rp9btr6+aZsqlUrN6m1F6boeITdHRUG6A0FXgu7oWMfFHTHry42E0xWy+C4+edB48SwkHgSoeLbniQ69OzKoYhC3RUc7RuRSrUe1gDp/gPVkE+YlVOlBc7C9iGVjPLDqCH/t1+kFyjDcJNROUp/dD5M8gELhPvLYnhM6dACEVmCcYI4vcGkk0YdRaPpH17nrDwgiTDFlF7kKGDKVULm3VqNNR+51bZTR/hBvXLEXs+jPY4H7OaG9xvTE5Hg3KvcTwj9YMORMvwoZBAkkfwclIvE9AXAQotPYdbet9kdjOHjPXyw6GgCohDw8CDkzmhRzx7jr0r8DGouDUrgq+R6x/aB5IO1/mAt40elIhqfsm0hAQNhpAkDFzlzLz6HvMqPa5js3gcZ30+HH7XQ4mRO2wydB2X3tjhP79zs2RhgNUsS9QO/c3lgDrs1DBvaT0OECALmqMLnSH+6VD+NbSZU80zx3Maw7OeJ9M+8WSY0EFNa019k7abv+BxODZ9Z5vL571x7g+pA4H4+zEwAO2JI2k0whscm08tiuZ0qH3w2lT9YVN7inv48UFHjvyhJ2USBujjjqbsU+Qk+59N5UO+lD9ABz/iMaBlE34/iy0OEDQIxnVo0Fnm6GbUwtiK7dGr7Bw9VrELA+P2I96sNQbFvRh5KzMoMRwlzkj0BjAoXqVHco+3VhoIY4b0iDOs/d/XtA4wyPGzu06S7Yh5yVeEC7z4oOEQCMzBe3WFTC3wUAcYFj/ryQvLmHQdsGgzX2UfcqtS77R3sfTJw1OpM59z3m3ZnL70tYlLA9X/Td/XkR3jNO2hEVGKICz845PN/n0a1qJCvT592b378XYZU8AML29j7vadIhAsAzQbZ/tP0wUtNuUiZcWu2FEdKD9WkvIrjcPZtDkHcv8gd8g+1zwCbt8i5kgtZdpOuYiHKTUXsYAVYH896/sF0/jtHjYFgefrps7EL64e4oigaOT3u0+ZQpZM0hkDRBzGi26tZqNx0j0DRWw3JLFO3gd347vY7xtm/m6CnctGGpNnPpBI46a1SbL/eRuMfRexoqcj8R3+ENH371LfWhabTNEnKEpJPkkvzLlngcjJU53a5/w5l/GFOay0WjBp0WS5hekOzw+8eJQLfT45dLm6qzKSvgJ5+ok/WGgcDGKiOelXSzjfrkaafAjVvnyg/h5g5VBI9BT9x6aPIoaEC9yY2VhnvEil8TabZ4+ULNMYy/Ds8LDHlUqyNlhDFcx0yf/G7kfrM4XrdLBRQ6B5KIk5U7TfukxbxGrV5jvp/l19QPAAZqt+KYz4Ml3Q6/LcySLAlBAEAQuCOq5beIWep1rz3V6dYYUJFKhM/wmGuYiyJuLHUBgLuP7Gf8gBmQ8c7fWFRK4e4e+tvEDpwCiZvZHDJ/jIWgPDsQPPaTQSExcHw9jO52hG5ZxEQ6Y6ks77v1q2OHoynYoQYeTyZtcqJoU5NTbtXw7OyMnT592uZPnrKg23A/DLm1uerqdi+CEhPvWVFJXrxU8QtBeFL4zLmL9u13vm9nz79qM7NzluK3/Vhjz903FQcs5KcEMpPlsSxWKxfcI2ynTp22M2fO6xhL1NdsdfmuExTrAwAlnp/JI4Dbw12obZ5syuUn1O4le+tb76rNectrLLnshCVT/ldBeACV5WZ+nSBvSEkbr4FhxTDPK8zPn7KzZy/YuQvn7eRp9TkRF1ieDQieGACh30MLMLkIhvcC89gXTwPBfKdITosEAO3Ppv0yal7YzBLyYpFn5Sacj6xXy7a0eEfXoYYUNaLr1Iy0R0WCcT9QpTInRn7t8lv29nfes6npk+43/ZwAWBiqP9r2D2nSU5aw80wf79rjfTy0O+VKLM5zjC1bvHPbgRmr4LIACnWo77TrLc/QvbPg1de/aZcvf0fXz1haY0nEALuCBc7hfLULbwASTx/z7j/azeUA4KSuK9rkNM8WZt3LuJ8VAB7ryaCQuBSTxkIIbrFubZUdAB6nRv94V9N+9Yu/t//xX/6jVcprTii0gZGkyjBk4jExmPvd935iP/jRT+299/756MjjUbfbtOtXP7X//Ff/wZaXblmrWXXt7iSsCUvJv/n2e/b9H/7U3nnnPQG5sOd4AREy9eDbTcwG8lIo3gsIGMKngp42PREAQtMf/lQMq2Qetza6gcleW1u2Lz77vf31f/8ru/rlJ+5x8JAtYdXprBg3e9L+5b/+S3vnu+/b3Nzp0ZHHIwRVU7xw7eoX9rO//k/221//g/tV8p2s4YHUN7/9XfuDH/+prM4feOux4xmEcXKWZB9+cAxrxPOLPCsBAPj+tOmRXYA3a/4pV56D54FLgjwWPPr9jPjRi9cY7y95F8/i3TsK2JrOn2I2w8L79E9I4K++9rp993s/kQ+/pOsIIveu9yAFP42JnihO24YAWNraULs8ep6/126Wdk+etu987327/OZ3FLecc+3uVd/BS+iieHcBriJ+j78U6KitwoEtQHiaj6oHxpM2nU4g4TdsZWVJYCCv9abtcWk0ZtXVsZ///d/andtX3ZO5IdEDWilOTtsrF16x115/x6ZPzLs20eLH5VXYLnV88Kt/ss8//p0sT1ljHh0Qke3nJ2fsh+/+oc2fOieQTjzRWCFYyk/A8I4BAlNcwTjBY0BxlHRgAODryW8J9gABJosrSXFYhxcy60kAG/aEurY21uSLG2o39PyeaAXG8MZyXuJEJhC2+bhth+1yfbm05QJRVhiPlNQRm7zzaHrqhH/cXYJ5krFCYbvU5X9w0wub7IEx4hL4PEo6MADw9wh/dXXVrYA94GXH9EhE6hh31oD0OHzQ9CjpQADglBAAV65csWvXrrlFlqGfOqbDIuKArF26dMHeeuvrziWEL686KjoQADD94SwWy6sRPmb/GACHTViAmAQ/4V4eEboCQHBUdCAAEOXzdo1mk9el+QgVMBzT0RBPOSN0JpB4z8LMzPToyOHTAwEQHlpb27KFhSX3Bo9e7/5f5TqmoyG0f27ulJ0/f84uXjzv9h2FK3ggANB0fH9DOT532qqlig2Cg97uPaYnJd50wv0SgkL37oMnzTv3oAcC4N4sn2IAJnyCLve/Ef5DvcYxPRHBX/8GUt49hDvAFfD6ucMGwQMBQKC3trbmCi908kSuerS56TEx98HUE3MevIImb+fOnbXJyYlDTwv3BQCmn+ifN3suKfff2CyZW4kxxA89mztXLw9tW1m0fmLCA4BPYgMsA5+HQbsA4I2P135KT2WjXLYKL3oGmPvai2M6CuJ1s9ls2v1eID8rA/kM4XCmiHcBAOET5lVk8tvNpjP2OolDx/QMafy+AK+jO6wp4n0twJ3FRVtcWrby5pZF3Po2d/iYnhGh9X4V06l7M4SHQfvGAAvLy3Z3acnWlleVDh4D4FkTAp+bm7NLFy44C3BYweC+AGBxJTEALzfq6pT778kd09MmXqWfz2RsKp933w9rUmhfAITTvWQDuATKMT07Yok5v2AGEA6T9gXAMb0cdJzQv+R0DICXmsz+P4toPBqniB7EAAAAAElFTkSuQmCC;" vertex="1" parent="1">
          <mxGeometry x="720" y="450" width="128" height="102" as="geometry" />
        </mxCell>
        <mxCell id="zcPDOfNT08QtMXOAa3Rn-13" value="" style="rounded=0;whiteSpace=wrap;html=1;strokeColor=default;align=center;verticalAlign=middle;fontFamily=Helvetica;fontSize=12;fontColor=default;fillColor=default;" vertex="1" parent="1">
          <mxGeometry x="80" y="390" width="40" height="20" as="geometry" />
        </mxCell>
        <mxCell id="zcPDOfNT08QtMXOAa3Rn-15" value="" style="endArrow=none;html=1;rounded=0;fontFamily=Helvetica;fontSize=12;fontColor=default;entryX=0.5;entryY=1;entryDx=0;entryDy=0;" edge="1" parent="1" target="zcPDOfNT08QtMXOAa3Rn-13">
          <mxGeometry width="50" height="50" relative="1" as="geometry">
            <mxPoint x="100" y="450" as="sourcePoint" />
            <mxPoint x="160" y="390" as="targetPoint" />
          </mxGeometry>
        </mxCell>
        <mxCell id="zcPDOfNT08QtMXOAa3Rn-16" value="" style="endArrow=none;html=1;rounded=0;fontFamily=Helvetica;fontSize=12;fontColor=default;" edge="1" parent="1">
          <mxGeometry width="50" height="50" relative="1" as="geometry">
            <mxPoint x="100" y="450" as="sourcePoint" />
            <mxPoint x="120" y="480" as="targetPoint" />
          </mxGeometry>
        </mxCell>
        <mxCell id="zcPDOfNT08QtMXOAa3Rn-17" value="" style="endArrow=none;html=1;rounded=0;fontFamily=Helvetica;fontSize=12;fontColor=default;" edge="1" parent="1">
          <mxGeometry width="50" height="50" relative="1" as="geometry">
            <mxPoint x="100" y="450" as="sourcePoint" />
            <mxPoint x="80" y="480" as="targetPoint" />
          </mxGeometry>
        </mxCell>
        <mxCell id="zcPDOfNT08QtMXOAa3Rn-18" value="" style="endArrow=none;html=1;rounded=0;fontFamily=Helvetica;fontSize=12;fontColor=default;" edge="1" parent="1">
          <mxGeometry width="50" height="50" relative="1" as="geometry">
            <mxPoint x="80" y="430" as="sourcePoint" />
            <mxPoint x="120" y="430" as="targetPoint" />
          </mxGeometry>
        </mxCell>
        <mxCell id="zcPDOfNT08QtMXOAa3Rn-19" value="" style="endArrow=none;html=1;rounded=0;fontFamily=Helvetica;fontSize=12;fontColor=default;entryX=0;entryY=0.5;entryDx=0;entryDy=0;" edge="1" parent="1" target="zcPDOfNT08QtMXOAa3Rn-9">
          <mxGeometry width="50" height="50" relative="1" as="geometry">
            <mxPoint x="140" y="440" as="sourcePoint" />
            <mxPoint x="420" y="350" as="targetPoint" />
          </mxGeometry>
        </mxCell>
        <mxCell id="zcPDOfNT08QtMXOAa3Rn-20" value="" style="endArrow=none;html=1;rounded=0;fontFamily=Helvetica;fontSize=12;fontColor=default;" edge="1" parent="1" target="zcPDOfNT08QtMXOAa3Rn-8">
          <mxGeometry width="50" height="50" relative="1" as="geometry">
            <mxPoint x="140" y="440" as="sourcePoint" />
            <mxPoint x="430" y="360" as="targetPoint" />
          </mxGeometry>
        </mxCell>
        <mxCell id="zcPDOfNT08QtMXOAa3Rn-22" value="" style="endArrow=none;html=1;rounded=0;fontFamily=Helvetica;fontSize=12;fontColor=default;entryX=0;entryY=1;entryDx=0;entryDy=0;" edge="1" parent="1" target="zcPDOfNT08QtMXOAa3Rn-4">
          <mxGeometry width="50" height="50" relative="1" as="geometry">
            <mxPoint x="140" y="440" as="sourcePoint" />
            <mxPoint x="302" y="257" as="targetPoint" />
          </mxGeometry>
        </mxCell>
        <mxCell id="zcPDOfNT08QtMXOAa3Rn-23" value="" style="endArrow=none;html=1;rounded=0;fontFamily=Helvetica;fontSize=12;fontColor=default;" edge="1" parent="1" target="zcPDOfNT08QtMXOAa3Rn-5">
          <mxGeometry width="50" height="50" relative="1" as="geometry">
            <mxPoint x="140" y="440" as="sourcePoint" />
            <mxPoint x="312" y="267" as="targetPoint" />
          </mxGeometry>
        </mxCell>
        <mxCell id="zcPDOfNT08QtMXOAa3Rn-24" value="" style="endArrow=none;html=1;rounded=0;fontFamily=Helvetica;fontSize=12;fontColor=default;" edge="1" parent="1" target="zcPDOfNT08QtMXOAa3Rn-6">
          <mxGeometry width="50" height="50" relative="1" as="geometry">
            <mxPoint x="140" y="440" as="sourcePoint" />
            <mxPoint x="322" y="277" as="targetPoint" />
          </mxGeometry>
        </mxCell>
        <mxCell id="zcPDOfNT08QtMXOAa3Rn-25" value="" style="endArrow=none;html=1;rounded=0;fontFamily=Helvetica;fontSize=12;fontColor=default;" edge="1" parent="1" target="zcPDOfNT08QtMXOAa3Rn-7">
          <mxGeometry width="50" height="50" relative="1" as="geometry">
            <mxPoint x="140" y="440" as="sourcePoint" />
            <mxPoint x="332" y="287" as="targetPoint" />
          </mxGeometry>
        </mxCell>
        <mxCell id="zcPDOfNT08QtMXOAa3Rn-26" value="" style="endArrow=none;html=1;rounded=0;fontFamily=Helvetica;fontSize=12;fontColor=default;" edge="1" parent="1" target="zcPDOfNT08QtMXOAa3Rn-8">
          <mxGeometry width="50" height="50" relative="1" as="geometry">
            <mxPoint x="710" y="520" as="sourcePoint" />
            <mxPoint x="342" y="297" as="targetPoint" />
          </mxGeometry>
        </mxCell>
        <mxCell id="zcPDOfNT08QtMXOAa3Rn-27" value="" style="endArrow=none;html=1;rounded=0;fontFamily=Helvetica;fontSize=12;fontColor=default;" edge="1" parent="1" target="zcPDOfNT08QtMXOAa3Rn-4">
          <mxGeometry width="50" height="50" relative="1" as="geometry">
            <mxPoint x="710" y="520" as="sourcePoint" />
            <mxPoint x="407" y="275" as="targetPoint" />
          </mxGeometry>
        </mxCell>
        <mxCell id="zcPDOfNT08QtMXOAa3Rn-28" value="" style="endArrow=none;html=1;rounded=0;fontFamily=Helvetica;fontSize=12;fontColor=default;" edge="1" parent="1" target="zcPDOfNT08QtMXOAa3Rn-5">
          <mxGeometry width="50" height="50" relative="1" as="geometry">
            <mxPoint x="710" y="521" as="sourcePoint" />
            <mxPoint x="417" y="285" as="targetPoint" />
          </mxGeometry>
        </mxCell>
        <mxCell id="zcPDOfNT08QtMXOAa3Rn-29" value="" style="endArrow=none;html=1;rounded=0;fontFamily=Helvetica;fontSize=12;fontColor=default;" edge="1" parent="1" target="zcPDOfNT08QtMXOAa3Rn-6">
          <mxGeometry width="50" height="50" relative="1" as="geometry">
            <mxPoint x="710" y="520" as="sourcePoint" />
            <mxPoint x="427" y="295" as="targetPoint" />
          </mxGeometry>
        </mxCell>
        <mxCell id="zcPDOfNT08QtMXOAa3Rn-30" value="" style="endArrow=none;html=1;rounded=0;fontFamily=Helvetica;fontSize=12;fontColor=default;" edge="1" parent="1" target="zcPDOfNT08QtMXOAa3Rn-7">
          <mxGeometry width="50" height="50" relative="1" as="geometry">
            <mxPoint x="710" y="520" as="sourcePoint" />
            <mxPoint x="437" y="305" as="targetPoint" />
          </mxGeometry>
        </mxCell>
        <mxCell id="zcPDOfNT08QtMXOAa3Rn-31" value="" style="endArrow=none;html=1;rounded=0;fontFamily=Helvetica;fontSize=12;fontColor=default;" edge="1" parent="1" source="zcPDOfNT08QtMXOAa3Rn-6">
          <mxGeometry width="50" height="50" relative="1" as="geometry">
            <mxPoint x="740" y="551" as="sourcePoint" />
            <mxPoint x="700" y="240" as="targetPoint" />
          </mxGeometry>
        </mxCell>
        <mxCell id="zcPDOfNT08QtMXOAa3Rn-32" value="" style="endArrow=none;html=1;rounded=0;fontFamily=Helvetica;fontSize=12;fontColor=default;" edge="1" parent="1" source="zcPDOfNT08QtMXOAa3Rn-5">
          <mxGeometry width="50" height="50" relative="1" as="geometry">
            <mxPoint x="403" y="544" as="sourcePoint" />
            <mxPoint x="700" y="240" as="targetPoint" />
          </mxGeometry>
        </mxCell>
        <mxCell id="zcPDOfNT08QtMXOAa3Rn-33" value="" style="endArrow=none;html=1;rounded=0;fontFamily=Helvetica;fontSize=12;fontColor=default;" edge="1" parent="1" source="zcPDOfNT08QtMXOAa3Rn-4">
          <mxGeometry width="50" height="50" relative="1" as="geometry">
            <mxPoint x="413" y="554" as="sourcePoint" />
            <mxPoint x="700" y="240" as="targetPoint" />
          </mxGeometry>
        </mxCell>
        <mxCell id="zcPDOfNT08QtMXOAa3Rn-38" value="" style="endArrow=open;endSize=12;dashed=1;html=1;fontFamily=Helvetica;fontSize=12;fontColor=default;curved=1;exitX=1;exitY=0.5;exitDx=0;exitDy=0;" edge="1" parent="1" source="zcPDOfNT08QtMXOAa3Rn-9" target="zcPDOfNT08QtMXOAa3Rn-8">
          <mxGeometry x="-0.0122" y="-188" width="160" relative="1" as="geometry">
            <mxPoint x="420" y="270" as="sourcePoint" />
            <mxPoint x="580" y="270" as="targetPoint" />
            <Array as="points">
              <mxPoint x="500" y="180" />
            </Array>
            <mxPoint x="239" y="95" as="offset" />
          </mxGeometry>
        </mxCell>
        <mxCell id="zcPDOfNT08QtMXOAa3Rn-39" value="" style="endArrow=open;endSize=12;dashed=1;html=1;fontFamily=Helvetica;fontSize=12;fontColor=default;curved=1;exitX=0.918;exitY=0.246;exitDx=0;exitDy=0;exitPerimeter=0;entryX=1;entryY=0.5;entryDx=0;entryDy=0;" edge="1" parent="1" source="zcPDOfNT08QtMXOAa3Rn-9" target="zcPDOfNT08QtMXOAa3Rn-4">
          <mxGeometry x="-0.0122" y="-188" width="160" relative="1" as="geometry">
            <mxPoint x="440" y="135" as="sourcePoint" />
            <mxPoint x="425" y="223" as="targetPoint" />
            <Array as="points">
              <mxPoint x="600" y="180" />
            </Array>
            <mxPoint x="239" y="95" as="offset" />
          </mxGeometry>
        </mxCell>
      </root>
    </mxGraphModel>
  </diagram>
</mxfile>
